<?xml version="1.0" encoding="UTF-8"?>
<svg id="_レイヤー_2" data-name="レイヤー 2" xmlns="http://www.w3.org/2000/svg" xmlns:xlink="http://www.w3.org/1999/xlink" viewBox="0 0 119.41 119.41">
  <defs>
    <style>
      .cls-1 {
        clip-path: url(#clippath);
      }

      .cls-2, .cls-3, .cls-4 {
        fill: #2d5570;
      }

      .cls-3, .cls-5 {
        stroke-width: 10px;
      }

      .cls-3, .cls-5, .cls-4 {
        stroke: #fff;
        stroke-miterlimit: 10;
      }

      .cls-5 {
        fill: none;
      }
    </style>
    <clipPath id="clippath">
      <circle class="cls-2" cx="59.7" cy="59.7" r="59.7"/>
    </clipPath>
  </defs>
  <g id="_レイヤー_1-2" data-name="レイヤー 1">
    <g>
      <circle class="cls-2" cx="59.7" cy="59.7" r="59.7"/>
      <g class="cls-1">
        <g id="_ロゴ" data-name="ロゴ">
          <circle class="cls-4" cx="59.7" cy="59.7" r="59.7"/>
          <line class="cls-3" x1="36.49" y1="42.06" x2="36.49" y2="119.41"/>
          <line class="cls-3" x1="65.17" y1="19.6" x2="65.17" y2="119.41"/>
          <path class="cls-3" d="M65.17,67.81h47.37c1.17-.05,2.8-.26,4.6-.94,3.11-1.18,5.03-3.14,5.94-4.22"/>
          <g>
            <path class="cls-2" d="M-14.44,45.51c22.52-8.12,27.27,5.06,49.79-3.06s17.78-21.29,40.3-29.41,27.27,5.06,49.8-3.06"/>
            <path class="cls-5" d="M-14.44,45.51c22.52-8.12,27.27,5.06,49.79-3.06s17.78-21.29,40.3-29.41,27.27,5.06,49.8-3.06"/>
          </g>
        </g>
      </g>
    </g>
  </g>
</svg>